<?xml version="1.0" encoding="utf-8"?>
<!-- Generator: Adobe Illustrator 16.0.0, SVG Export Plug-In . SVG Version: 6.00 Build 0)  -->
<!DOCTYPE svg PUBLIC "-//W3C//DTD SVG 1.1//EN" "http://www.w3.org/Graphics/SVG/1.1/DTD/svg11.dtd">
<svg version="1.1" id="Layer_1" xmlns="http://www.w3.org/2000/svg" xmlns:xlink="http://www.w3.org/1999/xlink" x="0px" y="0px"
	 width="418px" height="600px" viewBox="0 0 418 600" enable-background="new 0 0 418 600" xml:space="preserve">
<path fill="#FFFFFF" d="M208.998,595.603c-1.396,0-2.803-0.238-4.13-0.723l-193.42-69.793c-4.82-1.739-8.05-6.331-8.05-11.463
	V166.919c0-6.733,5.455-12.191,12.2-12.191h23.733V96.635L28.749,77.827c-1.021-1.823-1.564-3.88-1.564-5.983V16.592
	c0-6.736,5.455-12.194,12.183-12.194h87.967c6.727,0,12.183,5.458,12.183,12.194v18.889h13.309V16.592
	c0-6.736,5.464-12.194,12.193-12.194h87.967c6.726,0,12.184,5.458,12.184,12.194v18.889h13.307V16.592
	c0-6.736,5.461-12.194,12.192-12.194h87.953c6.734,0,12.191,5.458,12.191,12.194v55.252c0,2.103-0.526,4.16-1.566,5.983
	l-10.585,18.808v58.094h23.749c6.726,0,12.191,5.458,12.191,12.191v346.705c0,5.132-3.212,9.724-8.044,11.463L213.142,594.88
	C211.796,595.364,210.405,595.603,208.998,595.603L208.998,595.603z"/>
<polygon fill="#008C4B" points="366.488,166.919 366.488,93.437 378.621,71.844 378.621,16.592 290.668,16.592 290.668,47.671 
	252.985,47.671 252.985,16.592 165.019,16.592 165.019,47.671 127.334,47.671 127.334,16.592 39.367,16.592 39.367,71.844 
	51.523,93.437 51.523,166.919 15.599,166.919 15.599,513.624 208.998,583.417 402.41,513.624 402.41,166.919 366.488,166.919 "/>
<polygon fill="#FFFFFF" points="382.286,499.505 382.286,187.042 35.701,187.042 35.701,499.505 208.998,562.027 382.286,499.505 
	382.286,499.505 "/>
<polygon fill="#FFFFFF" points="108.704,166.919 68.596,166.919 68.596,154.068 108.704,154.068 108.704,166.919 "/>
<polygon fill="#FFFFFF" points="108.704,136.456 68.596,136.456 68.596,123.599 108.704,123.599 108.704,136.456 "/>
<polygon fill="#FFFFFF" points="148.823,151.684 108.704,151.684 108.704,138.832 148.823,138.832 148.823,151.684 "/>
<polygon fill="#FFFFFF" points="188.94,166.919 148.823,166.919 148.823,154.068 188.94,154.068 188.94,166.919 "/>
<polygon fill="#FFFFFF" points="188.94,136.456 148.823,136.456 148.823,123.599 188.94,123.599 188.94,136.456 "/>
<polygon fill="#FFFFFF" points="229.051,151.684 188.94,151.684 188.94,138.832 229.051,138.832 229.051,151.684 "/>
<polygon fill="#FFFFFF" points="269.17,166.919 229.051,166.919 229.051,154.068 269.17,154.068 269.17,166.919 "/>
<polygon fill="#FFFFFF" points="269.17,136.456 229.051,136.456 229.051,123.599 269.17,123.599 269.17,136.456 "/>
<polygon fill="#FFFFFF" points="309.285,151.684 269.17,151.684 269.17,138.832 309.285,138.832 309.285,151.684 "/>
<polygon fill="#FFFFFF" points="349.403,166.919 309.285,166.919 309.285,154.068 349.403,154.068 349.403,166.919 "/>
<polygon fill="#FFFFFF" points="349.403,136.456 309.285,136.456 309.285,123.599 349.403,123.599 349.403,136.456 "/>
<polygon fill="#FFFFFF" points="68.596,98.461 349.403,98.461 349.403,114.099 68.596,114.099 68.596,98.461 "/>
<polygon fill="#FFFFFF" points="307.729,33.654 307.729,64.737 235.913,64.737 235.913,33.654 182.08,33.654 182.08,64.737 
	110.262,64.737 110.262,33.654 56.44,33.654 56.44,67.381 68.596,88.966 349.403,88.966 361.57,67.381 361.57,67.381 361.57,33.654 
	307.729,33.654 "/>
<polygon fill="#008C4B" points="356.696,499.505 94.28,499.505 356.696,217.382 356.696,499.505 "/>
<polygon fill="#008C4B" points="337.868,212.635 71.032,499.505 80.138,499.505 346.974,212.635 337.868,212.635 "/>
<polygon fill="#008C4B" points="129.158,360.839 129.158,379.222 106.804,379.222 106.804,253.226 106.804,241.281 129.158,241.281 
	200.883,344.679 323.708,212.635 61.298,212.635 61.298,494.741 185.861,360.839 129.158,360.839 "/>
<polygon fill="#008C4B" points="129.158,339.924 166.949,339.924 129.158,285.437 129.158,339.924 "/>
<polygon fill="#FFFFFF" points="251.977,347.862 295.737,411.647 295.737,350.449 322.766,350.449 322.766,451.019 322.766,466.177 
	300.577,466.177 245.797,386.37 245.797,466.177 218.768,466.177 218.768,383.558 122.273,487.31 344.504,487.31 344.504,248.384 
	251.977,347.862 "/>
</svg>
